<svg width="2925" height="775" viewBox="0 0 2925 775" fill="none" xmlns="http://www.w3.org/2000/svg">
<path d="M686.958 637C672.54 637 665.33 629.276 665.33 613.828V217.124C665.33 201.676 672.54 193.952 686.958 193.952H737.009C749.367 193.952 755.547 201.676 755.547 217.124V560.378H935.67C951.118 560.378 958.842 567.072 958.842 580.46V616.918C958.842 630.306 951.118 637 935.67 637H686.958ZM1022.81 637C1010.45 637 1004.27 630.821 1004.27 618.462V331.13C1004.27 318.772 1010.45 312.593 1022.81 312.593H1072.24C1084.6 312.593 1090.78 318.772 1090.78 331.13V618.462C1090.78 630.821 1084.6 637 1072.24 637H1022.81ZM1022.81 265.013C1010.45 265.013 1004.27 258.834 1004.27 246.475V206.929C1004.27 194.57 1010.45 188.391 1022.81 188.391H1072.24C1084.6 188.391 1090.78 194.57 1090.78 206.929V246.475C1090.78 258.834 1084.6 265.013 1072.24 265.013H1022.81ZM1180.7 637C1168.34 637 1162.16 630.821 1162.16 618.462V331.13C1162.16 318.772 1168.34 312.593 1180.7 312.593H1229.52C1241.87 312.593 1248.05 318.772 1248.05 331.13V349.05H1249.29C1258.76 332.778 1270.81 321.655 1285.44 315.682C1300.06 309.503 1317.67 306.413 1338.27 306.413C1370.4 306.413 1396.97 316.506 1417.98 336.691C1438.99 356.877 1449.49 393.746 1449.49 447.299V618.462C1449.49 630.821 1443.31 637 1430.96 637H1381.52C1369.16 637 1362.99 630.821 1362.99 618.462V469.544C1362.99 424.642 1359.9 396.321 1353.72 384.58C1347.54 372.84 1334.25 366.969 1313.86 366.969C1292.23 366.969 1275.96 375.414 1265.05 392.304C1254.13 408.988 1248.67 443.797 1248.67 496.732V618.462C1248.67 630.821 1242.49 637 1230.13 637H1180.7ZM1538.8 637C1526.44 637 1520.26 630.821 1520.26 618.462V199.513C1520.26 187.155 1526.44 180.976 1538.8 180.976H1588.23C1600.59 180.976 1606.77 187.155 1606.77 199.513V426.599C1606.77 434.838 1606.35 443.076 1605.53 451.315H1606.77L1704.71 325.26C1711.3 316.815 1719.33 312.593 1728.81 312.593H1779.48C1798.42 312.593 1801.62 320.214 1789.05 335.456L1695.75 448.226L1803.88 614.137C1813.77 629.379 1810.58 637 1794.31 637H1741.47C1731.17 637 1722.73 631.645 1716.14 620.934L1646 508.164L1606.77 555.435V618.462C1606.77 630.821 1600.59 637 1588.23 637H1538.8Z" fill="black"/>
<path d="M1894.78 637C1884.48 637 1879.33 631.336 1879.33 620.007V210.945C1879.33 199.616 1884.48 193.952 1894.78 193.952H2015.28C2085.31 193.952 2132.47 205.281 2156.78 227.938C2181.08 250.595 2193.24 277.886 2193.24 309.812C2193.24 335.147 2183.14 356.671 2162.96 374.385C2142.77 391.892 2123.21 402.191 2104.26 405.28V406.207C2125.06 408.061 2148.23 418.463 2173.77 437.412C2199.52 456.156 2212.39 481.696 2212.39 514.034C2212.39 549.05 2199.42 578.298 2173.46 601.779C2147.72 625.26 2100.14 637 2030.72 637H1894.78ZM1938.65 586.331H2020.84C2065.12 586.331 2097.56 580.872 2118.16 569.956C2138.76 559.039 2149.05 539.781 2149.05 512.18C2149.05 486.64 2138.55 466.866 2117.54 452.86C2096.74 438.854 2064.5 431.851 2020.84 431.851H1938.65V586.331ZM1938.65 387.361H2016.2C2050.6 387.361 2078.61 380.049 2100.24 365.425C2122.07 350.595 2132.99 332.057 2132.99 309.812C2132.99 288.597 2124.85 272.428 2108.58 261.305C2092.31 250.183 2061.52 244.622 2016.2 244.622H1938.65V387.361ZM2291.5 637C2282.23 637 2277.59 632.366 2277.59 623.097V326.496C2277.59 317.227 2282.23 312.593 2291.5 312.593H2318.07C2327.34 312.593 2331.97 317.227 2331.97 326.496V623.097C2331.97 632.366 2327.34 637 2318.07 637H2291.5ZM2291.5 253.89C2282.23 253.89 2277.59 249.256 2277.59 239.987V213.417C2277.59 204.148 2282.23 199.513 2291.5 199.513H2318.07C2327.34 199.513 2331.97 204.148 2331.97 213.417V239.987C2331.97 249.256 2327.34 253.89 2318.07 253.89H2291.5ZM2420.96 637C2411.69 637 2407.06 632.366 2407.06 623.097V326.496C2407.06 317.227 2411.69 312.593 2420.96 312.593H2446.92C2456.19 312.593 2460.82 317.227 2460.82 326.496V363.571H2462.06C2471.94 345.033 2483.58 331.027 2496.97 321.552C2510.36 312.078 2527.04 307.34 2547.02 307.34C2560.2 307.34 2569.47 308.473 2574.83 310.739C2579.56 312.593 2581.31 315.682 2580.08 320.008L2572.97 345.342C2571.94 349.05 2569.26 350.492 2564.94 349.668C2557.73 348.226 2550.93 347.505 2544.55 347.505C2520.45 347.505 2500.57 358.422 2484.92 380.255C2469.26 401.882 2461.44 431.439 2461.44 468.926V623.097C2461.44 632.366 2456.8 637 2447.53 637H2420.96ZM2599.86 474.796C2599.86 430.512 2610.57 391.583 2632 358.01C2653.42 324.23 2684.72 307.34 2725.92 307.34C2749.61 307.34 2768.56 311.254 2782.77 319.081C2796.98 326.908 2809.75 337.618 2821.08 351.213H2821.7C2821.28 345.033 2821.08 338.751 2821.08 332.366V194.879C2821.08 185.61 2825.71 180.976 2834.98 180.976H2861.55C2870.82 180.976 2875.46 185.61 2875.46 194.879V623.097C2875.46 632.366 2870.82 637 2861.55 637H2835.6C2828.18 637 2824.17 632.366 2823.55 623.097L2821.7 598.38H2821.08C2809.75 611.974 2796.98 622.685 2782.77 630.512C2768.56 638.339 2749.61 642.252 2725.92 642.252C2684.72 642.252 2653.42 625.466 2632 591.892C2610.57 558.112 2599.86 519.08 2599.86 474.796ZM2657.33 474.796C2657.33 512.695 2663.82 543.385 2676.79 566.866C2689.98 590.347 2712.22 602.088 2743.53 602.088C2765.77 602.088 2784.21 594.57 2798.83 579.534C2813.66 564.292 2821.08 541.223 2821.08 510.327V439.266C2821.08 408.37 2813.66 385.404 2798.83 370.368C2784.21 355.126 2765.77 347.505 2743.53 347.505C2712.22 347.505 2689.98 359.246 2676.79 382.726C2663.82 406.207 2657.33 436.897 2657.33 474.796Z" fill="#0074FF"/>
<rect y="150.142" width="557.346" height="557.346" rx="69.2965" fill="#0074FF"/>
<path d="M348.052 375.465C285.259 380.115 130.129 344.563 53.1904 284.115C58.9867 300.009 148.898 386.444 267.584 443.51L125.782 576.665L505.991 354.741H489.775C482.3 344.878 446.648 338.678 422.152 354.741C397.526 370.889 364.613 375.465 348.052 375.465Z" fill="white"/>
</svg>
